<mxfile host="app.diagrams.net" agent="Mozilla/5.0 (Windows NT 10.0; Win64; x64; rv:134.0) Gecko/20100101 Firefox/134.0" version="26.0.6">
  <diagram name="Sida-1" id="bXitsvpXfQL73jSFbz0Q">
    <mxGraphModel dx="1434" dy="773" grid="1" gridSize="10" guides="1" tooltips="1" connect="1" arrows="1" fold="1" page="1" pageScale="1" pageWidth="827" pageHeight="1169" math="0" shadow="0">
      <root>
        <mxCell id="0" />
        <mxCell id="1" parent="0" />
        <mxCell id="ze2AR_OHZFJwG-qStSk9-4" style="edgeStyle=orthogonalEdgeStyle;rounded=0;orthogonalLoop=1;jettySize=auto;html=1;exitX=0.5;exitY=1;exitDx=0;exitDy=0;entryX=0.5;entryY=0;entryDx=0;entryDy=0;" edge="1" parent="1" source="ze2AR_OHZFJwG-qStSk9-2" target="ze2AR_OHZFJwG-qStSk9-3">
          <mxGeometry relative="1" as="geometry" />
        </mxCell>
        <mxCell id="ze2AR_OHZFJwG-qStSk9-2" value="&lt;b&gt;Device started up&lt;br&gt;&lt;/b&gt;" style="rounded=1;whiteSpace=wrap;html=1;arcSize=50;" vertex="1" parent="1">
          <mxGeometry x="130" y="40" width="120" height="60" as="geometry" />
        </mxCell>
        <mxCell id="ze2AR_OHZFJwG-qStSk9-6" style="edgeStyle=orthogonalEdgeStyle;rounded=0;orthogonalLoop=1;jettySize=auto;html=1;exitX=0.5;exitY=1;exitDx=0;exitDy=0;entryX=0.5;entryY=0;entryDx=0;entryDy=0;" edge="1" parent="1" source="ze2AR_OHZFJwG-qStSk9-3" target="ze2AR_OHZFJwG-qStSk9-5">
          <mxGeometry relative="1" as="geometry" />
        </mxCell>
        <mxCell id="ze2AR_OHZFJwG-qStSk9-3" value="Reset current state variable" style="rounded=0;whiteSpace=wrap;html=1;" vertex="1" parent="1">
          <mxGeometry x="130" y="150" width="120" height="60" as="geometry" />
        </mxCell>
        <mxCell id="ze2AR_OHZFJwG-qStSk9-43" style="edgeStyle=orthogonalEdgeStyle;rounded=0;orthogonalLoop=1;jettySize=auto;html=1;exitX=0.5;exitY=1;exitDx=0;exitDy=0;entryX=0.5;entryY=0;entryDx=0;entryDy=0;" edge="1" parent="1" source="ze2AR_OHZFJwG-qStSk9-5" target="ze2AR_OHZFJwG-qStSk9-42">
          <mxGeometry relative="1" as="geometry" />
        </mxCell>
        <mxCell id="ze2AR_OHZFJwG-qStSk9-44" value="&lt;div&gt;On button interrupt&lt;/div&gt;" style="edgeLabel;html=1;align=center;verticalAlign=middle;resizable=0;points=[];" vertex="1" connectable="0" parent="ze2AR_OHZFJwG-qStSk9-43">
          <mxGeometry x="-0.1267" y="-2" relative="1" as="geometry">
            <mxPoint as="offset" />
          </mxGeometry>
        </mxCell>
        <mxCell id="ze2AR_OHZFJwG-qStSk9-5" value="Display work time selection mode" style="rounded=0;whiteSpace=wrap;html=1;" vertex="1" parent="1">
          <mxGeometry x="130" y="260" width="120" height="60" as="geometry" />
        </mxCell>
        <mxCell id="ze2AR_OHZFJwG-qStSk9-75" style="edgeStyle=orthogonalEdgeStyle;rounded=0;orthogonalLoop=1;jettySize=auto;html=1;exitX=0.5;exitY=1;exitDx=0;exitDy=0;entryX=0.5;entryY=0;entryDx=0;entryDy=0;" edge="1" parent="1" source="ze2AR_OHZFJwG-qStSk9-7" target="ze2AR_OHZFJwG-qStSk9-63">
          <mxGeometry relative="1" as="geometry" />
        </mxCell>
        <mxCell id="ze2AR_OHZFJwG-qStSk9-7" value="Button interrupt received" style="shape=parallelogram;perimeter=parallelogramPerimeter;whiteSpace=wrap;html=1;fixedSize=1;" vertex="1" parent="1">
          <mxGeometry x="370" y="10" width="120" height="60" as="geometry" />
        </mxCell>
        <mxCell id="ze2AR_OHZFJwG-qStSk9-46" style="edgeStyle=orthogonalEdgeStyle;rounded=0;orthogonalLoop=1;jettySize=auto;html=1;exitX=1;exitY=0.5;exitDx=0;exitDy=0;entryX=0;entryY=0.5;entryDx=0;entryDy=0;" edge="1" parent="1" source="ze2AR_OHZFJwG-qStSk9-12" target="ze2AR_OHZFJwG-qStSk9-45">
          <mxGeometry relative="1" as="geometry" />
        </mxCell>
        <mxCell id="ze2AR_OHZFJwG-qStSk9-12" value="Update work/rest/repetitions global state (increment/decrement)" style="rounded=0;whiteSpace=wrap;html=1;" vertex="1" parent="1">
          <mxGeometry x="842" y="410" width="120" height="60" as="geometry" />
        </mxCell>
        <mxCell id="ze2AR_OHZFJwG-qStSk9-240" style="edgeStyle=orthogonalEdgeStyle;rounded=0;orthogonalLoop=1;jettySize=auto;html=1;exitX=1;exitY=0.5;exitDx=0;exitDy=0;entryX=0;entryY=0.5;entryDx=0;entryDy=0;" edge="1" parent="1" source="ze2AR_OHZFJwG-qStSk9-26" target="ze2AR_OHZFJwG-qStSk9-239">
          <mxGeometry relative="1" as="geometry" />
        </mxCell>
        <mxCell id="ze2AR_OHZFJwG-qStSk9-26" value="Go to next/prev screen" style="rounded=0;whiteSpace=wrap;html=1;" vertex="1" parent="1">
          <mxGeometry x="842" y="510" width="120" height="60" as="geometry" />
        </mxCell>
        <mxCell id="ze2AR_OHZFJwG-qStSk9-30" value="&lt;b&gt;&lt;font style=&quot;font-size: 24px;&quot;&gt;Main program flow&lt;br&gt;&lt;/font&gt;&lt;/b&gt;" style="text;html=1;align=center;verticalAlign=middle;whiteSpace=wrap;rounded=0;" vertex="1" parent="1">
          <mxGeometry x="30" y="40" width="60" height="30" as="geometry" />
        </mxCell>
        <mxCell id="ze2AR_OHZFJwG-qStSk9-31" value="&lt;font style=&quot;font-size: 24px;&quot;&gt;&lt;b&gt;Interrupt handling&lt;br&gt;&lt;/b&gt;&lt;/font&gt;" style="text;html=1;align=center;verticalAlign=middle;whiteSpace=wrap;rounded=0;" vertex="1" parent="1">
          <mxGeometry x="650" y="40" width="60" height="30" as="geometry" />
        </mxCell>
        <mxCell id="ze2AR_OHZFJwG-qStSk9-35" style="edgeStyle=orthogonalEdgeStyle;rounded=0;orthogonalLoop=1;jettySize=auto;html=1;exitX=1;exitY=0.5;exitDx=0;exitDy=0;entryX=0;entryY=0.5;entryDx=0;entryDy=0;" edge="1" parent="1" source="ze2AR_OHZFJwG-qStSk9-32" target="ze2AR_OHZFJwG-qStSk9-34">
          <mxGeometry relative="1" as="geometry" />
        </mxCell>
        <mxCell id="ze2AR_OHZFJwG-qStSk9-36" value="Set screen" style="edgeLabel;html=1;align=center;verticalAlign=middle;resizable=0;points=[];" vertex="1" connectable="0" parent="ze2AR_OHZFJwG-qStSk9-35">
          <mxGeometry x="-0.3393" y="4" relative="1" as="geometry">
            <mxPoint as="offset" />
          </mxGeometry>
        </mxCell>
        <mxCell id="ze2AR_OHZFJwG-qStSk9-158" style="edgeStyle=orthogonalEdgeStyle;rounded=0;orthogonalLoop=1;jettySize=auto;html=1;exitX=1;exitY=0;exitDx=0;exitDy=0;entryX=0;entryY=0.5;entryDx=0;entryDy=0;" edge="1" parent="1" source="ze2AR_OHZFJwG-qStSk9-32" target="ze2AR_OHZFJwG-qStSk9-157">
          <mxGeometry relative="1" as="geometry" />
        </mxCell>
        <mxCell id="ze2AR_OHZFJwG-qStSk9-159" value="Fine-tune mode" style="edgeLabel;html=1;align=center;verticalAlign=middle;resizable=0;points=[];" vertex="1" connectable="0" parent="ze2AR_OHZFJwG-qStSk9-158">
          <mxGeometry x="0.0554" y="1" relative="1" as="geometry">
            <mxPoint as="offset" />
          </mxGeometry>
        </mxCell>
        <mxCell id="ze2AR_OHZFJwG-qStSk9-182" style="edgeStyle=orthogonalEdgeStyle;rounded=0;orthogonalLoop=1;jettySize=auto;html=1;exitX=0.5;exitY=1;exitDx=0;exitDy=0;entryX=0.5;entryY=0;entryDx=0;entryDy=0;" edge="1" parent="1" source="ze2AR_OHZFJwG-qStSk9-32" target="ze2AR_OHZFJwG-qStSk9-176">
          <mxGeometry relative="1" as="geometry" />
        </mxCell>
        <mxCell id="ze2AR_OHZFJwG-qStSk9-183" value="Working mode" style="edgeLabel;html=1;align=center;verticalAlign=middle;resizable=0;points=[];" vertex="1" connectable="0" parent="ze2AR_OHZFJwG-qStSk9-182">
          <mxGeometry x="-0.6571" y="-1" relative="1" as="geometry">
            <mxPoint as="offset" />
          </mxGeometry>
        </mxCell>
        <mxCell id="ze2AR_OHZFJwG-qStSk9-32" value="Where in the code are we?" style="rhombus;whiteSpace=wrap;html=1;" vertex="1" parent="1">
          <mxGeometry x="440" y="360" width="80" height="80" as="geometry" />
        </mxCell>
        <mxCell id="ze2AR_OHZFJwG-qStSk9-38" style="edgeStyle=orthogonalEdgeStyle;rounded=0;orthogonalLoop=1;jettySize=auto;html=1;exitX=1;exitY=0.5;exitDx=0;exitDy=0;entryX=0;entryY=0.5;entryDx=0;entryDy=0;" edge="1" parent="1" source="ze2AR_OHZFJwG-qStSk9-34" target="ze2AR_OHZFJwG-qStSk9-12">
          <mxGeometry relative="1" as="geometry" />
        </mxCell>
        <mxCell id="ze2AR_OHZFJwG-qStSk9-39" value="Short press +/- button" style="edgeLabel;html=1;align=center;verticalAlign=middle;resizable=0;points=[];" vertex="1" connectable="0" parent="ze2AR_OHZFJwG-qStSk9-38">
          <mxGeometry x="-0.0333" y="-1" relative="1" as="geometry">
            <mxPoint as="offset" />
          </mxGeometry>
        </mxCell>
        <mxCell id="ze2AR_OHZFJwG-qStSk9-40" style="edgeStyle=orthogonalEdgeStyle;rounded=0;orthogonalLoop=1;jettySize=auto;html=1;exitX=1;exitY=0.5;exitDx=0;exitDy=0;entryX=0;entryY=0.5;entryDx=0;entryDy=0;" edge="1" parent="1" source="ze2AR_OHZFJwG-qStSk9-34" target="ze2AR_OHZFJwG-qStSk9-26">
          <mxGeometry relative="1" as="geometry">
            <Array as="points">
              <mxPoint x="702" y="520" />
            </Array>
          </mxGeometry>
        </mxCell>
        <mxCell id="ze2AR_OHZFJwG-qStSk9-41" value="Long press +/- button" style="edgeLabel;html=1;align=center;verticalAlign=middle;resizable=0;points=[];" vertex="1" connectable="0" parent="ze2AR_OHZFJwG-qStSk9-40">
          <mxGeometry x="0.3409" y="3" relative="1" as="geometry">
            <mxPoint as="offset" />
          </mxGeometry>
        </mxCell>
        <mxCell id="ze2AR_OHZFJwG-qStSk9-106" style="edgeStyle=orthogonalEdgeStyle;rounded=0;orthogonalLoop=1;jettySize=auto;html=1;exitX=0.5;exitY=1;exitDx=0;exitDy=0;entryX=0;entryY=0.5;entryDx=0;entryDy=0;" edge="1" parent="1" source="ze2AR_OHZFJwG-qStSk9-34" target="ze2AR_OHZFJwG-qStSk9-105">
          <mxGeometry relative="1" as="geometry" />
        </mxCell>
        <mxCell id="ze2AR_OHZFJwG-qStSk9-108" value="Short press preset button" style="edgeLabel;html=1;align=center;verticalAlign=middle;resizable=0;points=[];" vertex="1" connectable="0" parent="ze2AR_OHZFJwG-qStSk9-106">
          <mxGeometry x="0.3636" y="-2" relative="1" as="geometry">
            <mxPoint as="offset" />
          </mxGeometry>
        </mxCell>
        <mxCell id="ze2AR_OHZFJwG-qStSk9-110" style="edgeStyle=orthogonalEdgeStyle;rounded=0;orthogonalLoop=1;jettySize=auto;html=1;exitX=0.5;exitY=1;exitDx=0;exitDy=0;entryX=0;entryY=0.5;entryDx=0;entryDy=0;" edge="1" parent="1" source="ze2AR_OHZFJwG-qStSk9-34" target="ze2AR_OHZFJwG-qStSk9-109">
          <mxGeometry relative="1" as="geometry" />
        </mxCell>
        <mxCell id="ze2AR_OHZFJwG-qStSk9-112" value="Long press preset button" style="edgeLabel;html=1;align=center;verticalAlign=middle;resizable=0;points=[];" vertex="1" connectable="0" parent="ze2AR_OHZFJwG-qStSk9-110">
          <mxGeometry x="0.4845" y="-3" relative="1" as="geometry">
            <mxPoint as="offset" />
          </mxGeometry>
        </mxCell>
        <mxCell id="ze2AR_OHZFJwG-qStSk9-34" value="What happened?" style="rhombus;whiteSpace=wrap;html=1;" vertex="1" parent="1">
          <mxGeometry x="630" y="410" width="80" height="80" as="geometry" />
        </mxCell>
        <mxCell id="ze2AR_OHZFJwG-qStSk9-50" style="edgeStyle=orthogonalEdgeStyle;rounded=0;orthogonalLoop=1;jettySize=auto;html=1;exitX=0.5;exitY=1;exitDx=0;exitDy=0;entryX=0.5;entryY=0;entryDx=0;entryDy=0;" edge="1" parent="1" source="ze2AR_OHZFJwG-qStSk9-42" target="ze2AR_OHZFJwG-qStSk9-49">
          <mxGeometry relative="1" as="geometry" />
        </mxCell>
        <mxCell id="ze2AR_OHZFJwG-qStSk9-51" value="&lt;div&gt;On button interrupt&lt;/div&gt;" style="edgeLabel;html=1;align=center;verticalAlign=middle;resizable=0;points=[];" vertex="1" connectable="0" parent="ze2AR_OHZFJwG-qStSk9-50">
          <mxGeometry x="-0.0933" y="8" relative="1" as="geometry">
            <mxPoint as="offset" />
          </mxGeometry>
        </mxCell>
        <mxCell id="ze2AR_OHZFJwG-qStSk9-56" style="edgeStyle=orthogonalEdgeStyle;rounded=0;orthogonalLoop=1;jettySize=auto;html=1;exitX=1;exitY=0.5;exitDx=0;exitDy=0;entryX=1;entryY=0.5;entryDx=0;entryDy=0;" edge="1" parent="1" source="ze2AR_OHZFJwG-qStSk9-42" target="ze2AR_OHZFJwG-qStSk9-5">
          <mxGeometry relative="1" as="geometry">
            <Array as="points">
              <mxPoint x="320" y="400" />
              <mxPoint x="320" y="290" />
            </Array>
          </mxGeometry>
        </mxCell>
        <mxCell id="ze2AR_OHZFJwG-qStSk9-57" value="&lt;div&gt;On button interrupt&lt;/div&gt;" style="edgeLabel;html=1;align=center;verticalAlign=middle;resizable=0;points=[];" vertex="1" connectable="0" parent="ze2AR_OHZFJwG-qStSk9-56">
          <mxGeometry x="-0.0413" y="-3" relative="1" as="geometry">
            <mxPoint as="offset" />
          </mxGeometry>
        </mxCell>
        <mxCell id="ze2AR_OHZFJwG-qStSk9-42" value="Display rest time selection mode" style="rounded=0;whiteSpace=wrap;html=1;" vertex="1" parent="1">
          <mxGeometry x="130" y="370" width="120" height="60" as="geometry" />
        </mxCell>
        <mxCell id="ze2AR_OHZFJwG-qStSk9-45" value="Call updater function for currently shown screen" style="rounded=0;whiteSpace=wrap;html=1;" vertex="1" parent="1">
          <mxGeometry x="992" y="410" width="120" height="60" as="geometry" />
        </mxCell>
        <mxCell id="ze2AR_OHZFJwG-qStSk9-53" style="edgeStyle=orthogonalEdgeStyle;rounded=0;orthogonalLoop=1;jettySize=auto;html=1;exitX=1;exitY=0.5;exitDx=0;exitDy=0;entryX=1;entryY=0.5;entryDx=0;entryDy=0;" edge="1" parent="1" source="ze2AR_OHZFJwG-qStSk9-49" target="ze2AR_OHZFJwG-qStSk9-42">
          <mxGeometry relative="1" as="geometry">
            <Array as="points">
              <mxPoint x="320" y="510" />
              <mxPoint x="320" y="400" />
            </Array>
          </mxGeometry>
        </mxCell>
        <mxCell id="ze2AR_OHZFJwG-qStSk9-54" value="&lt;div&gt;On button interrupt&lt;/div&gt;" style="edgeLabel;html=1;align=center;verticalAlign=middle;resizable=0;points=[];" vertex="1" connectable="0" parent="ze2AR_OHZFJwG-qStSk9-53">
          <mxGeometry x="-0.08" y="-3" relative="1" as="geometry">
            <mxPoint as="offset" />
          </mxGeometry>
        </mxCell>
        <mxCell id="ze2AR_OHZFJwG-qStSk9-59" style="edgeStyle=orthogonalEdgeStyle;rounded=0;orthogonalLoop=1;jettySize=auto;html=1;exitX=0.5;exitY=1;exitDx=0;exitDy=0;entryX=0.5;entryY=0;entryDx=0;entryDy=0;" edge="1" parent="1" source="ze2AR_OHZFJwG-qStSk9-49" target="ze2AR_OHZFJwG-qStSk9-58">
          <mxGeometry relative="1" as="geometry" />
        </mxCell>
        <mxCell id="ze2AR_OHZFJwG-qStSk9-49" value="Display repetition selection mode" style="rounded=0;whiteSpace=wrap;html=1;" vertex="1" parent="1">
          <mxGeometry x="130" y="480" width="120" height="60" as="geometry" />
        </mxCell>
        <mxCell id="ze2AR_OHZFJwG-qStSk9-61" style="edgeStyle=orthogonalEdgeStyle;rounded=0;orthogonalLoop=1;jettySize=auto;html=1;exitX=0.5;exitY=1;exitDx=0;exitDy=0;entryX=0.5;entryY=0;entryDx=0;entryDy=0;" edge="1" parent="1" source="ze2AR_OHZFJwG-qStSk9-58" target="ze2AR_OHZFJwG-qStSk9-60">
          <mxGeometry relative="1" as="geometry" />
        </mxCell>
        <mxCell id="ze2AR_OHZFJwG-qStSk9-58" value="Start counting down" style="shape=process;whiteSpace=wrap;html=1;backgroundOutline=1;" vertex="1" parent="1">
          <mxGeometry x="130" y="580" width="120" height="60" as="geometry" />
        </mxCell>
        <mxCell id="ze2AR_OHZFJwG-qStSk9-78" style="edgeStyle=orthogonalEdgeStyle;rounded=0;orthogonalLoop=1;jettySize=auto;html=1;exitX=0.5;exitY=1;exitDx=0;exitDy=0;entryX=0.5;entryY=0;entryDx=0;entryDy=0;" edge="1" parent="1" source="ze2AR_OHZFJwG-qStSk9-60" target="ze2AR_OHZFJwG-qStSk9-76">
          <mxGeometry relative="1" as="geometry" />
        </mxCell>
        <mxCell id="ze2AR_OHZFJwG-qStSk9-60" value="Create copy of current state variable for countdown mode " style="rounded=0;whiteSpace=wrap;html=1;" vertex="1" parent="1">
          <mxGeometry x="130" y="670" width="120" height="60" as="geometry" />
        </mxCell>
        <mxCell id="ze2AR_OHZFJwG-qStSk9-66" style="edgeStyle=orthogonalEdgeStyle;rounded=0;orthogonalLoop=1;jettySize=auto;html=1;exitX=0.5;exitY=1;exitDx=0;exitDy=0;entryX=0.5;entryY=0;entryDx=0;entryDy=0;" edge="1" parent="1" source="ze2AR_OHZFJwG-qStSk9-63" target="ze2AR_OHZFJwG-qStSk9-65">
          <mxGeometry relative="1" as="geometry" />
        </mxCell>
        <mxCell id="ze2AR_OHZFJwG-qStSk9-67" value="Yes" style="edgeLabel;html=1;align=center;verticalAlign=middle;resizable=0;points=[];" vertex="1" connectable="0" parent="ze2AR_OHZFJwG-qStSk9-66">
          <mxGeometry x="-0.3778" y="-2" relative="1" as="geometry">
            <mxPoint as="offset" />
          </mxGeometry>
        </mxCell>
        <mxCell id="ze2AR_OHZFJwG-qStSk9-73" style="edgeStyle=orthogonalEdgeStyle;rounded=0;orthogonalLoop=1;jettySize=auto;html=1;exitX=1;exitY=0.5;exitDx=0;exitDy=0;entryX=0;entryY=0.5;entryDx=0;entryDy=0;" edge="1" parent="1" source="ze2AR_OHZFJwG-qStSk9-63" target="ze2AR_OHZFJwG-qStSk9-72">
          <mxGeometry relative="1" as="geometry" />
        </mxCell>
        <mxCell id="ze2AR_OHZFJwG-qStSk9-74" value="No" style="edgeLabel;html=1;align=center;verticalAlign=middle;resizable=0;points=[];" vertex="1" connectable="0" parent="ze2AR_OHZFJwG-qStSk9-73">
          <mxGeometry y="-1" relative="1" as="geometry">
            <mxPoint as="offset" />
          </mxGeometry>
        </mxCell>
        <mxCell id="ze2AR_OHZFJwG-qStSk9-63" value="Was the button released?" style="rhombus;whiteSpace=wrap;html=1;" vertex="1" parent="1">
          <mxGeometry x="434" y="100" width="80" height="80" as="geometry" />
        </mxCell>
        <mxCell id="ze2AR_OHZFJwG-qStSk9-69" style="edgeStyle=orthogonalEdgeStyle;rounded=0;orthogonalLoop=1;jettySize=auto;html=1;exitX=0.5;exitY=1;exitDx=0;exitDy=0;entryX=0.5;entryY=0;entryDx=0;entryDy=0;" edge="1" parent="1" source="ze2AR_OHZFJwG-qStSk9-65" target="ze2AR_OHZFJwG-qStSk9-32">
          <mxGeometry relative="1" as="geometry" />
        </mxCell>
        <mxCell id="ze2AR_OHZFJwG-qStSk9-70" value="Type of press being forwarded" style="edgeLabel;html=1;align=center;verticalAlign=middle;resizable=0;points=[];" vertex="1" connectable="0" parent="ze2AR_OHZFJwG-qStSk9-69">
          <mxGeometry x="-0.1256" y="1" relative="1" as="geometry">
            <mxPoint as="offset" />
          </mxGeometry>
        </mxCell>
        <mxCell id="ze2AR_OHZFJwG-qStSk9-65" value="Use timestamp to detect long or short press" style="rounded=0;whiteSpace=wrap;html=1;" vertex="1" parent="1">
          <mxGeometry x="414" y="220" width="120" height="60" as="geometry" />
        </mxCell>
        <mxCell id="ze2AR_OHZFJwG-qStSk9-72" value="Start keeping track of timestamp to detect long/short press" style="rounded=0;whiteSpace=wrap;html=1;" vertex="1" parent="1">
          <mxGeometry x="550" y="110" width="120" height="60" as="geometry" />
        </mxCell>
        <mxCell id="ze2AR_OHZFJwG-qStSk9-94" style="edgeStyle=orthogonalEdgeStyle;rounded=0;orthogonalLoop=1;jettySize=auto;html=1;exitX=0.5;exitY=1;exitDx=0;exitDy=0;entryX=0.5;entryY=0;entryDx=0;entryDy=0;" edge="1" parent="1" source="ze2AR_OHZFJwG-qStSk9-76" target="ze2AR_OHZFJwG-qStSk9-93">
          <mxGeometry relative="1" as="geometry" />
        </mxCell>
        <mxCell id="ze2AR_OHZFJwG-qStSk9-95" value="On button interrupt&lt;br&gt;(select fine tune)" style="edgeLabel;html=1;align=center;verticalAlign=middle;resizable=0;points=[];" vertex="1" connectable="0" parent="ze2AR_OHZFJwG-qStSk9-94">
          <mxGeometry x="-0.3267" y="4" relative="1" as="geometry">
            <mxPoint as="offset" />
          </mxGeometry>
        </mxCell>
        <mxCell id="ze2AR_OHZFJwG-qStSk9-101" style="edgeStyle=orthogonalEdgeStyle;rounded=0;orthogonalLoop=1;jettySize=auto;html=1;exitX=0;exitY=0.25;exitDx=0;exitDy=0;entryX=0;entryY=0.5;entryDx=0;entryDy=0;" edge="1" parent="1" source="ze2AR_OHZFJwG-qStSk9-76" target="ze2AR_OHZFJwG-qStSk9-3">
          <mxGeometry relative="1" as="geometry">
            <Array as="points">
              <mxPoint x="80" y="775" />
              <mxPoint x="80" y="180" />
            </Array>
          </mxGeometry>
        </mxCell>
        <mxCell id="ze2AR_OHZFJwG-qStSk9-102" value="On button interrupt&lt;br&gt;(stop)" style="edgeLabel;html=1;align=center;verticalAlign=middle;resizable=0;points=[];" vertex="1" connectable="0" parent="ze2AR_OHZFJwG-qStSk9-101">
          <mxGeometry x="-0.0796" y="-3" relative="1" as="geometry">
            <mxPoint as="offset" />
          </mxGeometry>
        </mxCell>
        <mxCell id="ze2AR_OHZFJwG-qStSk9-76" value="Start timer to enable interrupts every second" style="rounded=0;whiteSpace=wrap;html=1;" vertex="1" parent="1">
          <mxGeometry x="130" y="760" width="120" height="60" as="geometry" />
        </mxCell>
        <mxCell id="ze2AR_OHZFJwG-qStSk9-85" style="edgeStyle=orthogonalEdgeStyle;rounded=0;orthogonalLoop=1;jettySize=auto;html=1;exitX=0.5;exitY=1;exitDx=0;exitDy=0;entryX=0.5;entryY=0;entryDx=0;entryDy=0;" edge="1" parent="1" source="ze2AR_OHZFJwG-qStSk9-77" target="ze2AR_OHZFJwG-qStSk9-83">
          <mxGeometry relative="1" as="geometry" />
        </mxCell>
        <mxCell id="ze2AR_OHZFJwG-qStSk9-77" value="Timer interrupt received" style="shape=parallelogram;perimeter=parallelogramPerimeter;whiteSpace=wrap;html=1;fixedSize=1;" vertex="1" parent="1">
          <mxGeometry x="356.25" y="899" width="120" height="60" as="geometry" />
        </mxCell>
        <mxCell id="ze2AR_OHZFJwG-qStSk9-89" style="edgeStyle=orthogonalEdgeStyle;rounded=0;orthogonalLoop=1;jettySize=auto;html=1;exitX=1;exitY=0.5;exitDx=0;exitDy=0;entryX=0;entryY=0.5;entryDx=0;entryDy=0;" edge="1" parent="1" source="ze2AR_OHZFJwG-qStSk9-81" target="ze2AR_OHZFJwG-qStSk9-88">
          <mxGeometry relative="1" as="geometry" />
        </mxCell>
        <mxCell id="ze2AR_OHZFJwG-qStSk9-81" value="Decrement the countdown time in the current state variable with one second" style="rounded=0;whiteSpace=wrap;html=1;" vertex="1" parent="1">
          <mxGeometry x="531.25" y="994" width="150" height="60" as="geometry" />
        </mxCell>
        <mxCell id="ze2AR_OHZFJwG-qStSk9-86" style="edgeStyle=orthogonalEdgeStyle;rounded=0;orthogonalLoop=1;jettySize=auto;html=1;exitX=1;exitY=0.5;exitDx=0;exitDy=0;entryX=0;entryY=0.5;entryDx=0;entryDy=0;" edge="1" parent="1" source="ze2AR_OHZFJwG-qStSk9-83" target="ze2AR_OHZFJwG-qStSk9-81">
          <mxGeometry relative="1" as="geometry" />
        </mxCell>
        <mxCell id="ze2AR_OHZFJwG-qStSk9-87" value="Yes" style="edgeLabel;html=1;align=center;verticalAlign=middle;resizable=0;points=[];" vertex="1" connectable="0" parent="ze2AR_OHZFJwG-qStSk9-86">
          <mxGeometry x="-0.0833" y="-3" relative="1" as="geometry">
            <mxPoint as="offset" />
          </mxGeometry>
        </mxCell>
        <mxCell id="ze2AR_OHZFJwG-qStSk9-180" style="edgeStyle=orthogonalEdgeStyle;rounded=0;orthogonalLoop=1;jettySize=auto;html=1;exitX=0.5;exitY=1;exitDx=0;exitDy=0;entryX=0.5;entryY=0;entryDx=0;entryDy=0;" edge="1" parent="1" source="ze2AR_OHZFJwG-qStSk9-83" target="ze2AR_OHZFJwG-qStSk9-90">
          <mxGeometry relative="1" as="geometry" />
        </mxCell>
        <mxCell id="ze2AR_OHZFJwG-qStSk9-181" value="No" style="edgeLabel;html=1;align=center;verticalAlign=middle;resizable=0;points=[];" vertex="1" connectable="0" parent="ze2AR_OHZFJwG-qStSk9-180">
          <mxGeometry x="-0.65" y="3" relative="1" as="geometry">
            <mxPoint as="offset" />
          </mxGeometry>
        </mxCell>
        <mxCell id="ze2AR_OHZFJwG-qStSk9-83" value="&lt;font style=&quot;font-size: 10px;&quot;&gt;Current state variable still has&amp;nbsp; time left to decrement?&lt;/font&gt;" style="rhombus;whiteSpace=wrap;html=1;" vertex="1" parent="1">
          <mxGeometry x="361.25" y="979" width="110" height="90" as="geometry" />
        </mxCell>
        <mxCell id="ze2AR_OHZFJwG-qStSk9-88" value="Update screen to show current time left, the last LED should blink every second" style="rounded=0;whiteSpace=wrap;html=1;" vertex="1" parent="1">
          <mxGeometry x="721.25" y="994" width="150" height="60" as="geometry" />
        </mxCell>
        <mxCell id="ze2AR_OHZFJwG-qStSk9-90" value="Blink all LEDs +beep buzzer every second until user acknowledges seeing timeout&amp;nbsp; (handled by button interrupt)" style="rounded=0;whiteSpace=wrap;html=1;" vertex="1" parent="1">
          <mxGeometry x="326.25" y="1109" width="180" height="60" as="geometry" />
        </mxCell>
        <mxCell id="ze2AR_OHZFJwG-qStSk9-99" style="edgeStyle=orthogonalEdgeStyle;rounded=0;orthogonalLoop=1;jettySize=auto;html=1;exitX=0;exitY=0.5;exitDx=0;exitDy=0;entryX=0;entryY=0.5;entryDx=0;entryDy=0;" edge="1" parent="1" source="ze2AR_OHZFJwG-qStSk9-93" target="ze2AR_OHZFJwG-qStSk9-76">
          <mxGeometry relative="1" as="geometry">
            <Array as="points">
              <mxPoint x="80" y="900" />
              <mxPoint x="80" y="790" />
            </Array>
          </mxGeometry>
        </mxCell>
        <mxCell id="ze2AR_OHZFJwG-qStSk9-100" value="On button interrupt&lt;br&gt;(return from&amp;nbsp; fine tune)" style="edgeLabel;html=1;align=center;verticalAlign=middle;resizable=0;points=[];" vertex="1" connectable="0" parent="ze2AR_OHZFJwG-qStSk9-99">
          <mxGeometry x="-0.0492" relative="1" as="geometry">
            <mxPoint as="offset" />
          </mxGeometry>
        </mxCell>
        <mxCell id="ze2AR_OHZFJwG-qStSk9-93" value="Go to &quot;fine tune mode&quot;" style="rounded=0;whiteSpace=wrap;html=1;" vertex="1" parent="1">
          <mxGeometry x="130" y="870" width="120" height="60" as="geometry" />
        </mxCell>
        <mxCell id="ze2AR_OHZFJwG-qStSk9-115" style="edgeStyle=orthogonalEdgeStyle;rounded=0;orthogonalLoop=1;jettySize=auto;html=1;exitX=1;exitY=0.5;exitDx=0;exitDy=0;entryX=0;entryY=0.5;entryDx=0;entryDy=0;" edge="1" parent="1" source="ze2AR_OHZFJwG-qStSk9-103" target="ze2AR_OHZFJwG-qStSk9-109">
          <mxGeometry relative="1" as="geometry">
            <Array as="points">
              <mxPoint x="520" y="630" />
              <mxPoint x="666" y="630" />
              <mxPoint x="666" y="720" />
            </Array>
          </mxGeometry>
        </mxCell>
        <mxCell id="ze2AR_OHZFJwG-qStSk9-116" value="Long press preset button" style="edgeLabel;html=1;align=center;verticalAlign=middle;resizable=0;points=[];" vertex="1" connectable="0" parent="ze2AR_OHZFJwG-qStSk9-115">
          <mxGeometry x="-0.7174" y="-1" relative="1" as="geometry">
            <mxPoint as="offset" />
          </mxGeometry>
        </mxCell>
        <mxCell id="ze2AR_OHZFJwG-qStSk9-135" style="edgeStyle=orthogonalEdgeStyle;rounded=0;orthogonalLoop=1;jettySize=auto;html=1;exitX=0.5;exitY=1;exitDx=0;exitDy=0;entryX=0.5;entryY=0;entryDx=0;entryDy=0;" edge="1" parent="1" source="ze2AR_OHZFJwG-qStSk9-103" target="ze2AR_OHZFJwG-qStSk9-124">
          <mxGeometry relative="1" as="geometry">
            <mxPoint x="536" y="740" as="targetPoint" />
          </mxGeometry>
        </mxCell>
        <mxCell id="ze2AR_OHZFJwG-qStSk9-136" value="Short press + button" style="edgeLabel;html=1;align=center;verticalAlign=middle;resizable=0;points=[];" vertex="1" connectable="0" parent="ze2AR_OHZFJwG-qStSk9-135">
          <mxGeometry x="-0.0305" y="1" relative="1" as="geometry">
            <mxPoint y="1" as="offset" />
          </mxGeometry>
        </mxCell>
        <mxCell id="ze2AR_OHZFJwG-qStSk9-138" style="edgeStyle=orthogonalEdgeStyle;rounded=0;orthogonalLoop=1;jettySize=auto;html=1;exitX=1;exitY=0.5;exitDx=0;exitDy=0;entryX=0.5;entryY=0;entryDx=0;entryDy=0;" edge="1" parent="1" source="ze2AR_OHZFJwG-qStSk9-103" target="ze2AR_OHZFJwG-qStSk9-127">
          <mxGeometry relative="1" as="geometry">
            <Array as="points">
              <mxPoint x="520" y="670" />
              <mxPoint x="620" y="670" />
            </Array>
          </mxGeometry>
        </mxCell>
        <mxCell id="ze2AR_OHZFJwG-qStSk9-139" value="Long press + button" style="edgeLabel;html=1;align=center;verticalAlign=middle;resizable=0;points=[];" vertex="1" connectable="0" parent="ze2AR_OHZFJwG-qStSk9-138">
          <mxGeometry x="-0.0489" y="2" relative="1" as="geometry">
            <mxPoint as="offset" />
          </mxGeometry>
        </mxCell>
        <mxCell id="ze2AR_OHZFJwG-qStSk9-153" style="edgeStyle=orthogonalEdgeStyle;rounded=0;orthogonalLoop=1;jettySize=auto;html=1;exitX=1;exitY=0.5;exitDx=0;exitDy=0;entryX=0.5;entryY=0;entryDx=0;entryDy=0;" edge="1" parent="1" source="ze2AR_OHZFJwG-qStSk9-103" target="ze2AR_OHZFJwG-qStSk9-118">
          <mxGeometry relative="1" as="geometry">
            <Array as="points">
              <mxPoint x="520" y="750" />
              <mxPoint x="790" y="750" />
            </Array>
          </mxGeometry>
        </mxCell>
        <mxCell id="ze2AR_OHZFJwG-qStSk9-154" value="Long press - button" style="edgeLabel;html=1;align=center;verticalAlign=middle;resizable=0;points=[];" vertex="1" connectable="0" parent="ze2AR_OHZFJwG-qStSk9-153">
          <mxGeometry x="0.4361" y="-3" relative="1" as="geometry">
            <mxPoint as="offset" />
          </mxGeometry>
        </mxCell>
        <mxCell id="ze2AR_OHZFJwG-qStSk9-103" value="What happened?" style="rhombus;whiteSpace=wrap;html=1;" vertex="1" parent="1">
          <mxGeometry x="440" y="590" width="80" height="80" as="geometry" />
        </mxCell>
        <mxCell id="ze2AR_OHZFJwG-qStSk9-105" value="Load preset" style="rounded=0;whiteSpace=wrap;html=1;" vertex="1" parent="1">
          <mxGeometry x="842" y="610" width="120" height="60" as="geometry" />
        </mxCell>
        <mxCell id="ze2AR_OHZFJwG-qStSk9-109" value="Save preset" style="rounded=0;whiteSpace=wrap;html=1;" vertex="1" parent="1">
          <mxGeometry x="842" y="690" width="120" height="60" as="geometry" />
        </mxCell>
        <mxCell id="ze2AR_OHZFJwG-qStSk9-144" style="edgeStyle=orthogonalEdgeStyle;rounded=0;orthogonalLoop=1;jettySize=auto;html=1;exitX=1;exitY=0.5;exitDx=0;exitDy=0;entryX=0;entryY=0.5;entryDx=0;entryDy=0;" edge="1" parent="1" source="ze2AR_OHZFJwG-qStSk9-118" target="ze2AR_OHZFJwG-qStSk9-140">
          <mxGeometry relative="1" as="geometry" />
        </mxCell>
        <mxCell id="ze2AR_OHZFJwG-qStSk9-118" value="Stop timer interrupts" style="rounded=0;whiteSpace=wrap;html=1;" vertex="1" parent="1">
          <mxGeometry x="736.25" y="770" width="120" height="60" as="geometry" />
        </mxCell>
        <mxCell id="ze2AR_OHZFJwG-qStSk9-128" style="edgeStyle=orthogonalEdgeStyle;rounded=0;orthogonalLoop=1;jettySize=auto;html=1;exitX=1;exitY=0.5;exitDx=0;exitDy=0;entryX=0;entryY=0.5;entryDx=0;entryDy=0;" edge="1" parent="1" source="ze2AR_OHZFJwG-qStSk9-124" target="ze2AR_OHZFJwG-qStSk9-127">
          <mxGeometry relative="1" as="geometry" />
        </mxCell>
        <mxCell id="ze2AR_OHZFJwG-qStSk9-134" value="No" style="edgeLabel;html=1;align=center;verticalAlign=middle;resizable=0;points=[];" vertex="1" connectable="0" parent="ze2AR_OHZFJwG-qStSk9-128">
          <mxGeometry x="-0.2" y="-4" relative="1" as="geometry">
            <mxPoint as="offset" />
          </mxGeometry>
        </mxCell>
        <mxCell id="ze2AR_OHZFJwG-qStSk9-132" style="edgeStyle=orthogonalEdgeStyle;rounded=0;orthogonalLoop=1;jettySize=auto;html=1;exitX=0;exitY=0.5;exitDx=0;exitDy=0;entryX=1;entryY=0.5;entryDx=0;entryDy=0;" edge="1" parent="1" source="ze2AR_OHZFJwG-qStSk9-124" target="ze2AR_OHZFJwG-qStSk9-130">
          <mxGeometry relative="1" as="geometry" />
        </mxCell>
        <mxCell id="ze2AR_OHZFJwG-qStSk9-133" value="Yes" style="edgeLabel;html=1;align=center;verticalAlign=middle;resizable=0;points=[];" vertex="1" connectable="0" parent="ze2AR_OHZFJwG-qStSk9-132">
          <mxGeometry x="-0.08" y="-1" relative="1" as="geometry">
            <mxPoint as="offset" />
          </mxGeometry>
        </mxCell>
        <mxCell id="ze2AR_OHZFJwG-qStSk9-124" value="Current state is Timer paused?" style="rhombus;whiteSpace=wrap;html=1;" vertex="1" parent="1">
          <mxGeometry x="440" y="759" width="80" height="80" as="geometry" />
        </mxCell>
        <mxCell id="ze2AR_OHZFJwG-qStSk9-127" value="Update state variable to set that timer is paused" style="rounded=0;whiteSpace=wrap;html=1;" vertex="1" parent="1">
          <mxGeometry x="560" y="769" width="120" height="60" as="geometry" />
        </mxCell>
        <mxCell id="ze2AR_OHZFJwG-qStSk9-177" style="edgeStyle=orthogonalEdgeStyle;rounded=0;orthogonalLoop=1;jettySize=auto;html=1;exitX=0;exitY=0.5;exitDx=0;exitDy=0;entryX=1;entryY=0.5;entryDx=0;entryDy=0;" edge="1" parent="1" source="ze2AR_OHZFJwG-qStSk9-130" target="ze2AR_OHZFJwG-qStSk9-76">
          <mxGeometry relative="1" as="geometry" />
        </mxCell>
        <mxCell id="ze2AR_OHZFJwG-qStSk9-130" value="Update state variable to set that timer is resumed" style="rounded=0;whiteSpace=wrap;html=1;" vertex="1" parent="1">
          <mxGeometry x="280" y="779" width="120" height="60" as="geometry" />
        </mxCell>
        <mxCell id="ze2AR_OHZFJwG-qStSk9-148" style="edgeStyle=orthogonalEdgeStyle;rounded=0;orthogonalLoop=1;jettySize=auto;html=1;exitX=1;exitY=0.5;exitDx=0;exitDy=0;entryX=0.5;entryY=0;entryDx=0;entryDy=0;" edge="1" parent="1" source="ze2AR_OHZFJwG-qStSk9-140" target="ze2AR_OHZFJwG-qStSk9-141">
          <mxGeometry relative="1" as="geometry" />
        </mxCell>
        <mxCell id="ze2AR_OHZFJwG-qStSk9-149" value="Long press + button" style="edgeLabel;html=1;align=center;verticalAlign=middle;resizable=0;points=[];" vertex="1" connectable="0" parent="ze2AR_OHZFJwG-qStSk9-148">
          <mxGeometry x="-0.2269" y="1" relative="1" as="geometry">
            <mxPoint as="offset" />
          </mxGeometry>
        </mxCell>
        <mxCell id="ze2AR_OHZFJwG-qStSk9-252" style="edgeStyle=orthogonalEdgeStyle;rounded=0;orthogonalLoop=1;jettySize=auto;html=1;exitX=0.5;exitY=1;exitDx=0;exitDy=0;entryX=0.5;entryY=0;entryDx=0;entryDy=0;" edge="1" parent="1" source="ze2AR_OHZFJwG-qStSk9-140" target="ze2AR_OHZFJwG-qStSk9-174">
          <mxGeometry relative="1" as="geometry" />
        </mxCell>
        <mxCell id="ze2AR_OHZFJwG-qStSk9-253" value="Long press - button" style="edgeLabel;html=1;align=center;verticalAlign=middle;resizable=0;points=[];" vertex="1" connectable="0" parent="ze2AR_OHZFJwG-qStSk9-252">
          <mxGeometry x="-0.1429" y="-1" relative="1" as="geometry">
            <mxPoint as="offset" />
          </mxGeometry>
        </mxCell>
        <mxCell id="ze2AR_OHZFJwG-qStSk9-140" value="What happened?" style="rhombus;whiteSpace=wrap;html=1;" vertex="1" parent="1">
          <mxGeometry x="900" y="760" width="80" height="80" as="geometry" />
        </mxCell>
        <mxCell id="ze2AR_OHZFJwG-qStSk9-141" value="Enter &quot;fine tune mode&quot;" style="rounded=0;whiteSpace=wrap;html=1;" vertex="1" parent="1">
          <mxGeometry x="1030" y="840" width="120" height="60" as="geometry" />
        </mxCell>
        <mxCell id="ze2AR_OHZFJwG-qStSk9-143" style="edgeStyle=orthogonalEdgeStyle;rounded=0;orthogonalLoop=1;jettySize=auto;html=1;exitX=1;exitY=0.5;exitDx=0;exitDy=0;entryX=0.058;entryY=0.483;entryDx=0;entryDy=0;entryPerimeter=0;" edge="1" parent="1" source="ze2AR_OHZFJwG-qStSk9-127" target="ze2AR_OHZFJwG-qStSk9-118">
          <mxGeometry relative="1" as="geometry" />
        </mxCell>
        <mxCell id="ze2AR_OHZFJwG-qStSk9-161" style="edgeStyle=orthogonalEdgeStyle;rounded=0;orthogonalLoop=1;jettySize=auto;html=1;exitX=1;exitY=0.5;exitDx=0;exitDy=0;entryX=0;entryY=0.5;entryDx=0;entryDy=0;" edge="1" parent="1" source="ze2AR_OHZFJwG-qStSk9-157" target="ze2AR_OHZFJwG-qStSk9-160">
          <mxGeometry relative="1" as="geometry" />
        </mxCell>
        <mxCell id="ze2AR_OHZFJwG-qStSk9-162" value="Short press +/- button" style="edgeLabel;html=1;align=center;verticalAlign=middle;resizable=0;points=[];" vertex="1" connectable="0" parent="ze2AR_OHZFJwG-qStSk9-161">
          <mxGeometry x="-0.2576" y="-3" relative="1" as="geometry">
            <mxPoint as="offset" />
          </mxGeometry>
        </mxCell>
        <mxCell id="ze2AR_OHZFJwG-qStSk9-168" style="edgeStyle=orthogonalEdgeStyle;rounded=0;orthogonalLoop=1;jettySize=auto;html=1;exitX=1;exitY=0.5;exitDx=0;exitDy=0;entryX=0;entryY=0.5;entryDx=0;entryDy=0;" edge="1" parent="1" source="ze2AR_OHZFJwG-qStSk9-157" target="ze2AR_OHZFJwG-qStSk9-165">
          <mxGeometry relative="1" as="geometry">
            <Array as="points">
              <mxPoint x="700" y="340" />
              <mxPoint x="700" y="260" />
            </Array>
          </mxGeometry>
        </mxCell>
        <mxCell id="ze2AR_OHZFJwG-qStSk9-169" value="Long press + button" style="edgeLabel;html=1;align=center;verticalAlign=middle;resizable=0;points=[];" vertex="1" connectable="0" parent="ze2AR_OHZFJwG-qStSk9-168">
          <mxGeometry x="0.3037" y="5" relative="1" as="geometry">
            <mxPoint as="offset" />
          </mxGeometry>
        </mxCell>
        <mxCell id="ze2AR_OHZFJwG-qStSk9-157" value="What happened?" style="rhombus;whiteSpace=wrap;html=1;" vertex="1" parent="1">
          <mxGeometry x="630" y="300" width="80" height="80" as="geometry" />
        </mxCell>
        <mxCell id="ze2AR_OHZFJwG-qStSk9-164" style="edgeStyle=orthogonalEdgeStyle;rounded=0;orthogonalLoop=1;jettySize=auto;html=1;exitX=1;exitY=0.5;exitDx=0;exitDy=0;entryX=0;entryY=0.5;entryDx=0;entryDy=0;" edge="1" parent="1" source="ze2AR_OHZFJwG-qStSk9-160" target="ze2AR_OHZFJwG-qStSk9-163">
          <mxGeometry relative="1" as="geometry" />
        </mxCell>
        <mxCell id="ze2AR_OHZFJwG-qStSk9-160" value="Update the time to be added (update header of current state)" style="rounded=0;whiteSpace=wrap;html=1;" vertex="1" parent="1">
          <mxGeometry x="880" y="310" width="120" height="60" as="geometry" />
        </mxCell>
        <mxCell id="ze2AR_OHZFJwG-qStSk9-163" value="Call updater function to update screen" style="rounded=0;whiteSpace=wrap;html=1;" vertex="1" parent="1">
          <mxGeometry x="1030" y="310" width="120" height="60" as="geometry" />
        </mxCell>
        <mxCell id="ze2AR_OHZFJwG-qStSk9-233" style="edgeStyle=orthogonalEdgeStyle;rounded=0;orthogonalLoop=1;jettySize=auto;html=1;exitX=1;exitY=0.5;exitDx=0;exitDy=0;entryX=0;entryY=0.5;entryDx=0;entryDy=0;" edge="1" parent="1" source="ze2AR_OHZFJwG-qStSk9-165" target="ze2AR_OHZFJwG-qStSk9-231">
          <mxGeometry relative="1" as="geometry" />
        </mxCell>
        <mxCell id="ze2AR_OHZFJwG-qStSk9-165" value="Add time in header variable to current countdown state" style="rounded=0;whiteSpace=wrap;html=1;" vertex="1" parent="1">
          <mxGeometry x="880" y="230" width="120" height="60" as="geometry" />
        </mxCell>
        <mxCell id="ze2AR_OHZFJwG-qStSk9-171" value="Start timer to enable interrupts every second" style="rounded=0;whiteSpace=wrap;html=1;" vertex="1" parent="1">
          <mxGeometry x="1200" y="310" width="120" height="60" as="geometry" />
        </mxCell>
        <mxCell id="ze2AR_OHZFJwG-qStSk9-174" value="Go back to do the next action under &quot;Device started up&quot;," style="shape=offPageConnector;whiteSpace=wrap;html=1;" vertex="1" parent="1">
          <mxGeometry x="900" y="889" width="80" height="80" as="geometry" />
        </mxCell>
        <mxCell id="ze2AR_OHZFJwG-qStSk9-178" style="edgeStyle=orthogonalEdgeStyle;rounded=0;orthogonalLoop=1;jettySize=auto;html=1;exitX=0.5;exitY=1;exitDx=0;exitDy=0;entryX=0.5;entryY=0;entryDx=0;entryDy=0;" edge="1" parent="1" source="ze2AR_OHZFJwG-qStSk9-176" target="ze2AR_OHZFJwG-qStSk9-103">
          <mxGeometry relative="1" as="geometry" />
        </mxCell>
        <mxCell id="ze2AR_OHZFJwG-qStSk9-179" value="Yes" style="edgeLabel;html=1;align=center;verticalAlign=middle;resizable=0;points=[];" vertex="1" connectable="0" parent="ze2AR_OHZFJwG-qStSk9-178">
          <mxGeometry x="-0.4154" y="1" relative="1" as="geometry">
            <mxPoint y="1" as="offset" />
          </mxGeometry>
        </mxCell>
        <mxCell id="ze2AR_OHZFJwG-qStSk9-198" style="edgeStyle=orthogonalEdgeStyle;rounded=0;orthogonalLoop=1;jettySize=auto;html=1;exitX=1;exitY=0.5;exitDx=0;exitDy=0;entryX=0;entryY=0.5;entryDx=0;entryDy=0;" edge="1" parent="1" source="ze2AR_OHZFJwG-qStSk9-176" target="ze2AR_OHZFJwG-qStSk9-193">
          <mxGeometry relative="1" as="geometry">
            <Array as="points">
              <mxPoint x="520" y="550" />
              <mxPoint x="795" y="550" />
              <mxPoint x="795" y="598" />
            </Array>
          </mxGeometry>
        </mxCell>
        <mxCell id="ze2AR_OHZFJwG-qStSk9-199" value="No" style="edgeLabel;html=1;align=center;verticalAlign=middle;resizable=0;points=[];" vertex="1" connectable="0" parent="ze2AR_OHZFJwG-qStSk9-198">
          <mxGeometry x="-0.6778" y="-1" relative="1" as="geometry">
            <mxPoint x="1" as="offset" />
          </mxGeometry>
        </mxCell>
        <mxCell id="ze2AR_OHZFJwG-qStSk9-200" value="No" style="edgeLabel;html=1;align=center;verticalAlign=middle;resizable=0;points=[];" vertex="1" connectable="0" parent="ze2AR_OHZFJwG-qStSk9-198">
          <mxGeometry x="0.5333" y="1" relative="1" as="geometry">
            <mxPoint y="1" as="offset" />
          </mxGeometry>
        </mxCell>
        <mxCell id="ze2AR_OHZFJwG-qStSk9-176" value="&lt;font style=&quot;font-size: 10px;&quot;&gt;Current state variable still has&amp;nbsp; time left to decrement?&lt;/font&gt;" style="rhombus;whiteSpace=wrap;html=1;" vertex="1" parent="1">
          <mxGeometry x="440" y="477.5" width="80" height="80" as="geometry" />
        </mxCell>
        <mxCell id="ze2AR_OHZFJwG-qStSk9-220" style="edgeStyle=orthogonalEdgeStyle;rounded=0;orthogonalLoop=1;jettySize=auto;html=1;exitX=0;exitY=0;exitDx=120;exitDy=25;exitPerimeter=0;entryX=0.5;entryY=0;entryDx=0;entryDy=0;" edge="1" parent="1" source="ze2AR_OHZFJwG-qStSk9-191" target="ze2AR_OHZFJwG-qStSk9-219">
          <mxGeometry relative="1" as="geometry" />
        </mxCell>
        <mxCell id="ze2AR_OHZFJwG-qStSk9-191" value="User has confirmed that they have seen that the timer is ended" style="shape=callout;whiteSpace=wrap;html=1;perimeter=calloutPerimeter;" vertex="1" parent="1">
          <mxGeometry x="1350" y="580" width="120" height="80" as="geometry" />
        </mxCell>
        <mxCell id="ze2AR_OHZFJwG-qStSk9-194" style="edgeStyle=orthogonalEdgeStyle;rounded=0;orthogonalLoop=1;jettySize=auto;html=1;exitX=0.5;exitY=1;exitDx=0;exitDy=0;entryX=1;entryY=0.5;entryDx=0;entryDy=0;" edge="1" parent="1" source="ze2AR_OHZFJwG-qStSk9-193" target="ze2AR_OHZFJwG-qStSk9-109">
          <mxGeometry relative="1" as="geometry" />
        </mxCell>
        <mxCell id="ze2AR_OHZFJwG-qStSk9-195" value="Long press preset button" style="edgeLabel;html=1;align=center;verticalAlign=middle;resizable=0;points=[];" vertex="1" connectable="0" parent="ze2AR_OHZFJwG-qStSk9-194">
          <mxGeometry x="0.2538" y="-1" relative="1" as="geometry">
            <mxPoint x="1" as="offset" />
          </mxGeometry>
        </mxCell>
        <mxCell id="ze2AR_OHZFJwG-qStSk9-193" value="What happened?" style="rhombus;whiteSpace=wrap;html=1;" vertex="1" parent="1">
          <mxGeometry x="1070" y="557.5" width="80" height="80" as="geometry" />
        </mxCell>
        <mxCell id="ze2AR_OHZFJwG-qStSk9-196" style="edgeStyle=orthogonalEdgeStyle;rounded=0;orthogonalLoop=1;jettySize=auto;html=1;exitX=1;exitY=0.5;exitDx=0;exitDy=0;entryX=0;entryY=0;entryDx=0;entryDy=25;entryPerimeter=0;" edge="1" parent="1" source="ze2AR_OHZFJwG-qStSk9-193" target="ze2AR_OHZFJwG-qStSk9-191">
          <mxGeometry relative="1" as="geometry" />
        </mxCell>
        <mxCell id="ze2AR_OHZFJwG-qStSk9-197" value="Any type of +/- button press" style="edgeLabel;html=1;align=center;verticalAlign=middle;resizable=0;points=[];" vertex="1" connectable="0" parent="ze2AR_OHZFJwG-qStSk9-196">
          <mxGeometry x="-0.298" y="-2" relative="1" as="geometry">
            <mxPoint y="1" as="offset" />
          </mxGeometry>
        </mxCell>
        <mxCell id="ze2AR_OHZFJwG-qStSk9-206" style="edgeStyle=orthogonalEdgeStyle;rounded=0;orthogonalLoop=1;jettySize=auto;html=1;exitX=1;exitY=0.5;exitDx=0;exitDy=0;entryX=0.5;entryY=0;entryDx=0;entryDy=0;" edge="1" parent="1" source="ze2AR_OHZFJwG-qStSk9-202" target="ze2AR_OHZFJwG-qStSk9-205">
          <mxGeometry relative="1" as="geometry" />
        </mxCell>
        <mxCell id="ze2AR_OHZFJwG-qStSk9-207" value="A rest time ended" style="edgeLabel;html=1;align=center;verticalAlign=middle;resizable=0;points=[];" vertex="1" connectable="0" parent="ze2AR_OHZFJwG-qStSk9-206">
          <mxGeometry x="0.2544" y="4" relative="1" as="geometry">
            <mxPoint as="offset" />
          </mxGeometry>
        </mxCell>
        <mxCell id="ze2AR_OHZFJwG-qStSk9-217" style="edgeStyle=orthogonalEdgeStyle;rounded=0;orthogonalLoop=1;jettySize=auto;html=1;exitX=0.5;exitY=1;exitDx=0;exitDy=0;entryX=0.5;entryY=0;entryDx=0;entryDy=0;" edge="1" parent="1" source="ze2AR_OHZFJwG-qStSk9-202" target="ze2AR_OHZFJwG-qStSk9-209">
          <mxGeometry relative="1" as="geometry" />
        </mxCell>
        <mxCell id="ze2AR_OHZFJwG-qStSk9-218" value="A work time ended" style="edgeLabel;html=1;align=center;verticalAlign=middle;resizable=0;points=[];" vertex="1" connectable="0" parent="ze2AR_OHZFJwG-qStSk9-217">
          <mxGeometry x="0.0129" y="-1" relative="1" as="geometry">
            <mxPoint as="offset" />
          </mxGeometry>
        </mxCell>
        <mxCell id="ze2AR_OHZFJwG-qStSk9-202" value="What type of timeout just occurred?" style="rhombus;whiteSpace=wrap;html=1;" vertex="1" parent="1">
          <mxGeometry x="1500" y="810" width="80" height="80" as="geometry" />
        </mxCell>
        <mxCell id="ze2AR_OHZFJwG-qStSk9-213" style="edgeStyle=orthogonalEdgeStyle;rounded=0;orthogonalLoop=1;jettySize=auto;html=1;exitX=0.5;exitY=1;exitDx=0;exitDy=0;entryX=0.5;entryY=0;entryDx=0;entryDy=0;" edge="1" parent="1" source="ze2AR_OHZFJwG-qStSk9-205" target="ze2AR_OHZFJwG-qStSk9-212">
          <mxGeometry relative="1" as="geometry" />
        </mxCell>
        <mxCell id="ze2AR_OHZFJwG-qStSk9-205" value="Decrement repetitions left in current state" style="rounded=0;whiteSpace=wrap;html=1;" vertex="1" parent="1">
          <mxGeometry x="1570" y="949" width="120" height="60" as="geometry" />
        </mxCell>
        <mxCell id="ze2AR_OHZFJwG-qStSk9-224" style="edgeStyle=orthogonalEdgeStyle;rounded=0;orthogonalLoop=1;jettySize=auto;html=1;exitX=0.5;exitY=1;exitDx=0;exitDy=0;entryX=0.5;entryY=0;entryDx=0;entryDy=0;" edge="1" parent="1" source="ze2AR_OHZFJwG-qStSk9-209" target="ze2AR_OHZFJwG-qStSk9-215">
          <mxGeometry relative="1" as="geometry" />
        </mxCell>
        <mxCell id="ze2AR_OHZFJwG-qStSk9-209" value="Update current state to say that we are counting down rest time now" style="rounded=0;whiteSpace=wrap;html=1;" vertex="1" parent="1">
          <mxGeometry x="1420" y="1040" width="120" height="60" as="geometry" />
        </mxCell>
        <mxCell id="ze2AR_OHZFJwG-qStSk9-223" style="edgeStyle=orthogonalEdgeStyle;rounded=0;orthogonalLoop=1;jettySize=auto;html=1;exitX=0.5;exitY=1;exitDx=0;exitDy=0;entryX=0.5;entryY=0;entryDx=0;entryDy=0;" edge="1" parent="1" source="ze2AR_OHZFJwG-qStSk9-212" target="ze2AR_OHZFJwG-qStSk9-214">
          <mxGeometry relative="1" as="geometry" />
        </mxCell>
        <mxCell id="ze2AR_OHZFJwG-qStSk9-212" value="Update current state to say that we are counting down work time" style="rounded=0;whiteSpace=wrap;html=1;" vertex="1" parent="1">
          <mxGeometry x="1570" y="1040" width="120" height="60" as="geometry" />
        </mxCell>
        <mxCell id="ze2AR_OHZFJwG-qStSk9-225" style="edgeStyle=orthogonalEdgeStyle;rounded=0;orthogonalLoop=1;jettySize=auto;html=1;exitX=0;exitY=0.5;exitDx=0;exitDy=0;entryX=0.5;entryY=0;entryDx=0;entryDy=0;" edge="1" parent="1" source="ze2AR_OHZFJwG-qStSk9-214" target="ze2AR_OHZFJwG-qStSk9-215">
          <mxGeometry relative="1" as="geometry" />
        </mxCell>
        <mxCell id="ze2AR_OHZFJwG-qStSk9-226" value="Yes box!" style="edgeLabel;html=1;align=center;verticalAlign=middle;resizable=0;points=[];" vertex="1" connectable="0" parent="ze2AR_OHZFJwG-qStSk9-225">
          <mxGeometry x="-0.4118" y="-3" relative="1" as="geometry">
            <mxPoint as="offset" />
          </mxGeometry>
        </mxCell>
        <mxCell id="ze2AR_OHZFJwG-qStSk9-229" style="edgeStyle=orthogonalEdgeStyle;rounded=0;orthogonalLoop=1;jettySize=auto;html=1;exitX=0.5;exitY=1;exitDx=0;exitDy=0;" edge="1" parent="1" source="ze2AR_OHZFJwG-qStSk9-214" target="ze2AR_OHZFJwG-qStSk9-228">
          <mxGeometry relative="1" as="geometry" />
        </mxCell>
        <mxCell id="ze2AR_OHZFJwG-qStSk9-230" value="No, repetitions left=0" style="edgeLabel;html=1;align=center;verticalAlign=middle;resizable=0;points=[];" vertex="1" connectable="0" parent="ze2AR_OHZFJwG-qStSk9-229">
          <mxGeometry x="0.0571" y="-2" relative="1" as="geometry">
            <mxPoint as="offset" />
          </mxGeometry>
        </mxCell>
        <mxCell id="ze2AR_OHZFJwG-qStSk9-214" value="Repetitions left &amp;gt; 0?" style="rhombus;whiteSpace=wrap;html=1;" vertex="1" parent="1">
          <mxGeometry x="1590" y="1150" width="80" height="80" as="geometry" />
        </mxCell>
        <mxCell id="ze2AR_OHZFJwG-qStSk9-215" value="Start timer to interrupt every second" style="rounded=0;whiteSpace=wrap;html=1;" vertex="1" parent="1">
          <mxGeometry x="1420" y="1250" width="120" height="60" as="geometry" />
        </mxCell>
        <mxCell id="ze2AR_OHZFJwG-qStSk9-222" style="edgeStyle=orthogonalEdgeStyle;rounded=0;orthogonalLoop=1;jettySize=auto;html=1;exitX=1;exitY=0.5;exitDx=0;exitDy=0;entryX=0;entryY=0.5;entryDx=0;entryDy=0;" edge="1" parent="1" source="ze2AR_OHZFJwG-qStSk9-216" target="ze2AR_OHZFJwG-qStSk9-202">
          <mxGeometry relative="1" as="geometry" />
        </mxCell>
        <mxCell id="ze2AR_OHZFJwG-qStSk9-216" value="Turn off all lights on screen" style="rounded=0;whiteSpace=wrap;html=1;" vertex="1" parent="1">
          <mxGeometry x="1340" y="830" width="120" height="60" as="geometry" />
        </mxCell>
        <mxCell id="ze2AR_OHZFJwG-qStSk9-219" value="Stop timer interrupts" style="rounded=0;whiteSpace=wrap;html=1;" vertex="1" parent="1">
          <mxGeometry x="1340" y="700" width="120" height="60" as="geometry" />
        </mxCell>
        <mxCell id="ze2AR_OHZFJwG-qStSk9-221" style="edgeStyle=orthogonalEdgeStyle;rounded=0;orthogonalLoop=1;jettySize=auto;html=1;exitX=0.5;exitY=1;exitDx=0;exitDy=0;entryX=0.508;entryY=0.117;entryDx=0;entryDy=0;entryPerimeter=0;" edge="1" parent="1" source="ze2AR_OHZFJwG-qStSk9-219" target="ze2AR_OHZFJwG-qStSk9-216">
          <mxGeometry relative="1" as="geometry" />
        </mxCell>
        <mxCell id="ze2AR_OHZFJwG-qStSk9-228" value="Go back to do the next action under &quot;Device started up&quot;," style="shape=offPageConnector;whiteSpace=wrap;html=1;" vertex="1" parent="1">
          <mxGeometry x="1590" y="1300" width="80" height="80" as="geometry" />
        </mxCell>
        <mxCell id="ze2AR_OHZFJwG-qStSk9-235" style="edgeStyle=orthogonalEdgeStyle;rounded=0;orthogonalLoop=1;jettySize=auto;html=1;exitX=1;exitY=0.5;exitDx=0;exitDy=0;" edge="1" parent="1" source="ze2AR_OHZFJwG-qStSk9-231" target="ze2AR_OHZFJwG-qStSk9-234">
          <mxGeometry relative="1" as="geometry" />
        </mxCell>
        <mxCell id="ze2AR_OHZFJwG-qStSk9-231" value="Update the current state variable to say that we are on the work screen" style="rounded=0;whiteSpace=wrap;html=1;" vertex="1" parent="1">
          <mxGeometry x="1030" y="230" width="120" height="60" as="geometry" />
        </mxCell>
        <mxCell id="ze2AR_OHZFJwG-qStSk9-236" style="edgeStyle=orthogonalEdgeStyle;rounded=0;orthogonalLoop=1;jettySize=auto;html=1;exitX=0.5;exitY=1;exitDx=0;exitDy=0;entryX=0.5;entryY=0;entryDx=0;entryDy=0;" edge="1" parent="1" source="ze2AR_OHZFJwG-qStSk9-234" target="ze2AR_OHZFJwG-qStSk9-171">
          <mxGeometry relative="1" as="geometry" />
        </mxCell>
        <mxCell id="ze2AR_OHZFJwG-qStSk9-234" value="Call function to display work screen state" style="rounded=0;whiteSpace=wrap;html=1;" vertex="1" parent="1">
          <mxGeometry x="1200" y="230" width="120" height="60" as="geometry" />
        </mxCell>
        <mxCell id="ze2AR_OHZFJwG-qStSk9-246" style="edgeStyle=orthogonalEdgeStyle;rounded=0;orthogonalLoop=1;jettySize=auto;html=1;exitX=1;exitY=0.5;exitDx=0;exitDy=0;entryX=0.5;entryY=0;entryDx=0;entryDy=0;" edge="1" parent="1" source="ze2AR_OHZFJwG-qStSk9-238" target="ze2AR_OHZFJwG-qStSk9-245">
          <mxGeometry relative="1" as="geometry" />
        </mxCell>
        <mxCell id="ze2AR_OHZFJwG-qStSk9-247" value="Yes" style="edgeLabel;html=1;align=center;verticalAlign=middle;resizable=0;points=[];" vertex="1" connectable="0" parent="ze2AR_OHZFJwG-qStSk9-246">
          <mxGeometry x="-0.1888" y="-1" relative="1" as="geometry">
            <mxPoint y="1" as="offset" />
          </mxGeometry>
        </mxCell>
        <mxCell id="ze2AR_OHZFJwG-qStSk9-248" style="edgeStyle=orthogonalEdgeStyle;rounded=0;orthogonalLoop=1;jettySize=auto;html=1;exitX=0.5;exitY=0;exitDx=0;exitDy=0;entryX=1;entryY=0.5;entryDx=0;entryDy=0;" edge="1" parent="1" source="ze2AR_OHZFJwG-qStSk9-238" target="ze2AR_OHZFJwG-qStSk9-45">
          <mxGeometry relative="1" as="geometry" />
        </mxCell>
        <mxCell id="ze2AR_OHZFJwG-qStSk9-249" value="No" style="edgeLabel;html=1;align=center;verticalAlign=middle;resizable=0;points=[];" vertex="1" connectable="0" parent="ze2AR_OHZFJwG-qStSk9-248">
          <mxGeometry x="0.2095" y="3" relative="1" as="geometry">
            <mxPoint x="1" as="offset" />
          </mxGeometry>
        </mxCell>
        <mxCell id="ze2AR_OHZFJwG-qStSk9-238" value="Next screen is to start counting down?" style="rhombus;whiteSpace=wrap;html=1;" vertex="1" parent="1">
          <mxGeometry x="1161" y="477.5" width="80" height="80" as="geometry" />
        </mxCell>
        <mxCell id="ze2AR_OHZFJwG-qStSk9-243" value="" style="edgeStyle=orthogonalEdgeStyle;rounded=0;orthogonalLoop=1;jettySize=auto;html=1;" edge="1" parent="1" source="ze2AR_OHZFJwG-qStSk9-239" target="ze2AR_OHZFJwG-qStSk9-238">
          <mxGeometry relative="1" as="geometry" />
        </mxCell>
        <mxCell id="ze2AR_OHZFJwG-qStSk9-244" value="Yes" style="edgeLabel;html=1;align=center;verticalAlign=middle;resizable=0;points=[];" vertex="1" connectable="0" parent="ze2AR_OHZFJwG-qStSk9-243">
          <mxGeometry x="-0.168" y="2" relative="1" as="geometry">
            <mxPoint as="offset" />
          </mxGeometry>
        </mxCell>
        <mxCell id="ze2AR_OHZFJwG-qStSk9-239" value="Moving to next screen?" style="rhombus;whiteSpace=wrap;html=1;" vertex="1" parent="1">
          <mxGeometry x="1020" y="500" width="80" height="80" as="geometry" />
        </mxCell>
        <mxCell id="ze2AR_OHZFJwG-qStSk9-241" style="edgeStyle=orthogonalEdgeStyle;rounded=0;orthogonalLoop=1;jettySize=auto;html=1;exitX=0.5;exitY=0;exitDx=0;exitDy=0;entryX=0.567;entryY=1;entryDx=0;entryDy=0;entryPerimeter=0;" edge="1" parent="1" source="ze2AR_OHZFJwG-qStSk9-239" target="ze2AR_OHZFJwG-qStSk9-45">
          <mxGeometry relative="1" as="geometry" />
        </mxCell>
        <mxCell id="ze2AR_OHZFJwG-qStSk9-242" value="No" style="edgeLabel;html=1;align=center;verticalAlign=middle;resizable=0;points=[];" vertex="1" connectable="0" parent="ze2AR_OHZFJwG-qStSk9-241">
          <mxGeometry x="-0.1997" y="-3" relative="1" as="geometry">
            <mxPoint as="offset" />
          </mxGeometry>
        </mxCell>
        <mxCell id="ze2AR_OHZFJwG-qStSk9-245" value="See &quot;start counting down&quot;" style="shape=offPageConnector;whiteSpace=wrap;html=1;rotation=-90;" vertex="1" parent="1">
          <mxGeometry x="1310" y="480" width="80" height="80" as="geometry" />
        </mxCell>
      </root>
    </mxGraphModel>
  </diagram>
</mxfile>
